<svg width="16" height="16" viewBox="0 0 16 16" fill="none" xmlns="http://www.w3.org/2000/svg">
<rect width="16" height="16" rx="3" fill="#007BFF"/>
<path d="M9.33333 4.21895L12 6.88562M3 13.219H5.66667L12.6667 6.21895C12.8418 6.04386 12.9807 5.83599 13.0754 5.60721C13.1702 5.37844 13.219 5.13324 13.219 4.88562C13.219 4.638 13.1702 4.3928 13.0754 4.16402C12.9807 3.93525 12.8418 3.72738 12.6667 3.55228C12.4916 3.37719 12.2837 3.2383 12.0549 3.14353C11.8262 3.04877 11.581 3 11.3333 3C11.0857 3 10.8405 3.04877 10.6117 3.14353C10.383 3.2383 10.1751 3.37719 10 3.55228L3 10.5523V13.219Z" stroke="white" stroke-width="2" stroke-linecap="round" stroke-linejoin="round"/>
</svg>
