<svg width="18" height="18" viewBox="0 0 18 18" fill="none" xmlns="http://www.w3.org/2000/svg">
<path d="M2 4.03125L8.5 2L15 4.03125L8.5 6.0625L2 4.03125Z" stroke="black" stroke-width="2" stroke-linecap="round" stroke-linejoin="round"/>
<path d="M4.925 5.25V9.30031C4.925 9.30031 6.55 10.5312 8.5 10.5312C10.45 10.5312 12.075 9.30031 12.075 9.30031V5.25M2.975 4.4375V13.375M2 12.5625H3.95V15H2V12.5625Z" stroke="black" stroke-width="2" stroke-linecap="round" stroke-linejoin="round"/>
<path d="M13 6C12.0111 6 11.0444 6.29324 10.2222 6.84265C9.3999 7.39206 8.75904 8.17295 8.3806 9.08658C8.00217 10.0002 7.90315 11.0055 8.09608 11.9755C8.289 12.9454 8.76521 13.8363 9.46447 14.5355C10.1637 15.2348 11.0546 15.711 12.0246 15.9039C12.9945 16.0968 13.9998 15.9978 14.9134 15.6194C15.827 15.241 16.6079 14.6001 17.1573 13.7778C17.7068 12.9556 18 11.9889 18 11C18 9.67392 17.4732 8.40215 16.5355 7.46447C15.5979 6.52678 14.3261 6 13 6ZM12.2857 12.9964L10.5 11.2107L11.0679 10.6429L12.2857 11.8607L14.9321 9.21428L15.5021 9.78071L12.2857 12.9964Z" fill="#007BFF"/>
</svg>
